<svg width="18" height="18" viewBox="0 0 18 18" fill="none" xmlns="http://www.w3.org/2000/svg">
<path d="M3.31693 0.117188C2.18803 0.386719 1.30912 1.22656 0.9849 2.34375L0.895057 2.65234V9C0.895057 16.1602 0.867713 15.5039 1.20756 16.207C1.57865 16.9727 2.18803 17.5039 3.04349 17.8008L3.39506 17.9258H9.00053H14.606L14.9771 17.7969C15.8208 17.5039 16.4497 16.9453 16.8169 16.168C17.1294 15.4961 17.106 16.125 17.106 9C17.106 1.83984 17.1333 2.49609 16.7935 1.79297C16.3755 0.933594 15.6177 0.335938 14.6646 0.113281C14.2935 0.0273438 3.67631 0.03125 3.31693 0.117188ZM14.5591 1.38281C15.1958 1.57812 15.6958 2.12891 15.8326 2.78125C15.8951 3.07422 15.8951 14.9258 15.8326 15.2188C15.6958 15.8711 15.1958 16.4219 14.5591 16.6172C14.3091 16.6953 14.2037 16.6953 9.00053 16.6953C3.84037 16.6953 3.68803 16.6914 3.44974 16.6172C2.80912 16.4219 2.30131 15.8672 2.16849 15.2188C2.10599 14.9258 2.10599 3.07422 2.16849 2.78125C2.30131 2.13672 2.80521 1.58594 3.44584 1.37891C3.65678 1.3125 3.94974 1.30859 8.9849 1.30859C14.2076 1.30469 14.3091 1.30469 14.5591 1.38281Z" fill="#2B1C50"/>
<path d="M4.53136 3.4649C4.10558 3.70318 4.11729 4.32818 4.55089 4.55084C4.69933 4.62506 4.77354 4.62506 6.96495 4.61725C9.1837 4.60553 9.23057 4.60553 9.33604 4.5235C9.54307 4.37115 9.60557 4.24615 9.60557 4.00006C9.60557 3.75397 9.54307 3.62897 9.33604 3.47662C9.23057 3.39459 9.1837 3.39459 6.95714 3.38678L4.6837 3.37506L4.53136 3.4649Z" fill="#2B1C50"/>
<path d="M4.64042 6.73828C4.46464 6.78906 4.24979 7.04297 4.21464 7.23828C4.17948 7.44531 4.31229 7.73047 4.5037 7.85547L4.63651 7.94531H8.98807C12.7537 7.94531 13.3553 7.9375 13.4529 7.88672C13.6951 7.76172 13.8396 7.4375 13.7693 7.17188C13.7185 6.99219 13.5154 6.78516 13.3318 6.73438C13.1599 6.68359 4.81229 6.6875 4.64042 6.73828Z" fill="#2B1C50"/>
<path d="M4.5037 10.1445C4.31229 10.2695 4.17948 10.5547 4.21464 10.7617C4.24979 10.9687 4.46464 11.2109 4.65604 11.2656C4.85135 11.3164 13.1482 11.3203 13.3318 11.2656C13.5154 11.2148 13.7185 11.0078 13.7693 10.8281C13.8396 10.5625 13.6951 10.2383 13.4529 10.1133C13.3553 10.0625 12.7537 10.0547 8.98807 10.0547H4.63651L4.5037 10.1445Z" fill="#2B1C50"/>
<path d="M4.53136 13.4648C4.10558 13.7031 4.11729 14.3281 4.55089 14.5469C4.69542 14.625 4.80089 14.625 9.00011 14.625C13.1993 14.625 13.3048 14.625 13.4493 14.5469C13.8907 14.3242 13.8907 13.6758 13.4493 13.4531C13.3048 13.375 13.1993 13.375 8.99229 13.375H4.6837L4.53136 13.4648Z" fill="#2B1C50"/>
</svg>
