<svg width="20" height="20" viewBox="0 0 20 20" fill="none" xmlns="http://www.w3.org/2000/svg">
<path d="M4.78523 0.542969C4.44538 0.625 4.17976 0.855469 4.10554 1.12109C4.0821 1.20312 4.06257 1.45703 4.06257 1.6875V2.10547L2.96101 2.11719L1.85554 2.12891L1.65632 2.23438C1.54694 2.29297 1.37507 2.42969 1.27741 2.53906C0.949289 2.90234 0.976632 2.15234 0.976632 10.7969C0.976632 18.0391 0.980539 18.5078 1.04304 18.6875C1.13679 18.9453 1.39851 19.2305 1.67194 19.3633L1.8946 19.4727H10.0001H18.1055L18.2852 19.3906C18.5548 19.2656 18.7852 19.0352 18.9141 18.7695L19.0235 18.5352V10.8164C19.0235 2.14844 19.0509 2.90234 18.7227 2.53906C18.6251 2.42969 18.4532 2.29297 18.3438 2.23438L18.1446 2.12891L17.043 2.11719L15.9376 2.10547V1.6875C15.9376 1.19531 15.8946 1.01953 15.7384 0.84375C15.543 0.617188 15.3087 0.53125 14.9024 0.53125C14.5001 0.53125 14.3477 0.582031 14.1055 0.800781C13.9063 0.984375 13.8673 1.11719 13.8673 1.66797V2.10938H12.4415H11.0157V1.62109C11.0157 1.03125 10.961 0.882812 10.6798 0.703125C10.1876 0.394531 9.42194 0.484375 9.10944 0.886719C9.00788 1.02344 9.00398 1.05078 8.99226 1.57031L8.97663 2.10938H7.55476H6.13288V1.66797C6.13288 1.10156 6.09773 0.980469 5.87116 0.785156C5.60163 0.542969 5.17194 0.449219 4.78523 0.542969ZM5.37116 1.1875L5.50788 1.24609V1.67578V2.10938H5.09773H4.68757V1.67969V1.24609L4.81648 1.19141C4.98054 1.12109 5.20319 1.11719 5.37116 1.1875ZM10.254 1.1875L10.3907 1.24609V1.67578V2.10938H10.0001H9.60944V1.67969V1.24609L9.73835 1.19141C9.90241 1.12109 10.086 1.11719 10.254 1.1875ZM15.1759 1.1875L15.3126 1.24609V1.67578V2.10938H14.9024H14.4923V1.67969V1.24609L14.6212 1.19141C14.7852 1.12109 15.0079 1.11719 15.1759 1.1875ZM4.06257 3.01562C4.06257 3.17188 4.0821 3.36719 4.10554 3.44922C4.19148 3.76172 4.52741 3.99609 4.96882 4.04688C5.15632 4.07031 5.19148 4.0625 5.28523 3.98047C5.37898 3.89062 5.40632 3.82031 5.3946 3.66406C5.38679 3.55078 5.23835 3.44922 5.05866 3.42578C4.96101 3.41797 4.83991 3.37891 4.78523 3.34375C4.69538 3.28516 4.68757 3.25391 4.68757 3.00781V2.73438H6.83601H8.98444V3.08984C8.98444 3.50781 9.05866 3.68359 9.30476 3.85156C9.45319 3.95703 9.78132 4.0625 9.94929 4.0625C10.1524 4.0625 10.3126 3.90625 10.3126 3.70703C10.3126 3.57812 10.1524 3.45312 9.94929 3.42578C9.62898 3.38281 9.60944 3.35938 9.60944 3.02734V2.73438H11.7384H13.8673V3.05469C13.8712 3.54688 14.0001 3.77344 14.379 3.94141C14.4766 3.98438 14.6524 4.03125 14.7696 4.04688C14.9493 4.06641 14.9962 4.05859 15.0899 3.98438C15.1719 3.91797 15.1954 3.86719 15.1954 3.75391C15.1954 3.56641 15.0782 3.45312 14.8516 3.42578C14.7618 3.41406 14.6407 3.37891 14.5899 3.34375C14.5001 3.28516 14.4923 3.25391 14.4923 3.00781V2.73438H16.211C17.8477 2.73438 17.9415 2.73828 18.0821 2.8125C18.168 2.85547 18.2696 2.94922 18.3165 3.01953C18.3946 3.14844 18.3985 3.20312 18.3985 4.27344V5.39062H10.0001H1.60163V4.27344C1.60163 3.20312 1.60554 3.14844 1.68366 3.01953C1.84773 2.75391 1.92976 2.73828 3.05866 2.73438H4.06257V3.01562ZM18.3985 10.6641V15.3125H17.1915C16.0626 15.3125 15.9805 15.3164 15.8946 15.3867L15.8009 15.4609L15.7813 16.707L15.7618 17.9492H8.90632C2.06257 17.9492 2.05085 17.9492 1.91413 17.8672C1.83991 17.8242 1.73835 17.7305 1.69148 17.6562L1.60163 17.5273V11.7734V6.01562H10.0001H18.3985V10.6641ZM17.9688 15.9492C17.9688 15.9531 17.6173 16.3086 17.1876 16.7383L16.4063 17.5195V16.7266V15.9375H17.1876C17.6173 15.9375 17.9688 15.9414 17.9688 15.9492ZM18.3243 18.5703C18.2813 18.6367 18.1759 18.7344 18.0938 18.7812L17.9376 18.8672H10.0235C1.30476 18.8672 1.89851 18.8828 1.71882 18.6328C1.60163 18.4688 1.62116 18.4336 1.78913 18.5078C1.92194 18.5703 2.43757 18.5742 9.07038 18.5742H16.211L17.293 17.4883L18.379 16.4062L18.3907 17.4258C18.3985 18.3828 18.3946 18.4531 18.3243 18.5703Z" fill="black"/>
<path d="M3.65234 7.74219C3.48438 7.83203 3.47656 7.87109 3.47656 8.71875C3.47656 9.53125 3.47656 9.53516 3.57422 9.62891L3.66797 9.72656H4.58594H5.5L5.60547 9.60547L5.70703 9.48047L5.69531 8.68359L5.68359 7.88281L5.57422 7.78906C5.46484 7.69531 5.45703 7.69531 4.59766 7.69531C4.04688 7.69531 3.70312 7.71484 3.65234 7.74219ZM5.07812 8.71094V9.10156H4.58984H4.10156V8.71094V8.32031H4.58984H5.07812V8.71094Z" fill="black"/>
<path d="M7.20312 7.78906L7.08984 7.88281V8.71094V9.53906L7.19922 9.63281C7.30859 9.72656 7.3125 9.72656 8.20703 9.72656H9.10547L9.19922 9.62891C9.29688 9.53516 9.29688 9.53125 9.29688 8.71875C9.29688 7.96875 9.28906 7.89062 9.22266 7.80859C9.14844 7.71484 9.14062 7.71484 8.23047 7.70312L7.3125 7.69141L7.20312 7.78906ZM8.67188 8.71094V9.10156H8.18359H7.69531V8.71094V8.32031H8.18359H8.67188V8.71094Z" fill="black"/>
<path d="M10.8711 7.73437C10.7188 7.79687 10.7031 7.89062 10.7031 8.73047C10.7031 9.53125 10.7031 9.53516 10.8008 9.62891L10.8945 9.72656H11.793C12.6875 9.72656 12.6914 9.72656 12.8008 9.63281L12.9102 9.53906V8.71094V7.88281L12.8008 7.78906C12.6914 7.69531 12.6875 7.69531 11.8242 7.69922C11.3477 7.69922 10.918 7.71484 10.8711 7.73437ZM12.3047 8.71094V9.10156H11.8164H11.3281V8.71094V8.32031H11.8164H12.3047V8.71094Z" fill="black"/>
<path d="M16.1603 7.80076C16.1252 7.80857 15.8947 8.05467 15.6486 8.33982L15.2072 8.85935L15.0158 8.66404C14.7111 8.35154 14.4963 8.30076 14.3361 8.50779C14.1916 8.69139 14.2267 8.76951 14.6525 9.2031C15.0588 9.61326 15.1955 9.69529 15.3478 9.61326C15.3908 9.58982 15.6799 9.2656 15.9924 8.89842C16.4611 8.34764 16.5627 8.2031 16.5627 8.10545C16.5627 7.91795 16.3478 7.75389 16.1603 7.80076Z" fill="black"/>
<path d="M3.57422 11.2305C3.47656 11.3242 3.47656 11.3242 3.47656 12.1484C3.47656 12.9727 3.47656 12.9727 3.57422 13.0664L3.66797 13.1641H4.56641C5.46094 13.1641 5.46484 13.1641 5.57422 13.0703L5.68359 12.9766V12.1484V11.3203L5.57422 11.2266C5.46484 11.1328 5.46094 11.1328 4.56641 11.1328H3.66797L3.57422 11.2305ZM5.07812 12.1484V12.5391H4.58984H4.10156V12.1484V11.7578H4.58984H5.07812V12.1484Z" fill="black"/>
<path d="M7.19922 11.2266L7.08984 11.3203V12.1484V12.9766L7.19922 13.0703C7.30859 13.1641 7.3125 13.1641 8.20703 13.1641H9.10547L9.19922 13.0664C9.29688 12.9727 9.29688 12.9727 9.29688 12.1484C9.29688 11.3242 9.29688 11.3242 9.19922 11.2305L9.10547 11.1328H8.20703C7.3125 11.1328 7.30859 11.1328 7.19922 11.2266ZM8.67188 12.1484V12.5391H8.18359H7.69531V12.1484V11.7578H8.18359H8.67188V12.1484Z" fill="black"/>
<path d="M10.8008 11.2305C10.7031 11.3242 10.7031 11.3242 10.7031 12.1484C10.7031 12.9727 10.7031 12.9727 10.8008 13.0664L10.8945 13.1641H11.793C12.6875 13.1641 12.6914 13.1641 12.8008 13.0703L12.9102 12.9766V12.1484V11.3203L12.8008 11.2266C12.6914 11.1328 12.6875 11.1328 11.793 11.1328H10.8945L10.8008 11.2305ZM12.3047 12.1484V12.5391H11.8164H11.3281V12.1484V11.7578H11.8164H12.3047V12.1484Z" fill="black"/>
<path d="M14.4258 11.2266L14.3164 11.3203V12.1484V12.9766L14.4258 13.0703C14.5352 13.1641 14.5391 13.1641 15.4336 13.1641H16.332L16.4258 13.0664C16.5234 12.9727 16.5234 12.9727 16.5234 12.1484C16.5234 11.3242 16.5234 11.3242 16.4258 11.2305L16.332 11.1328H15.4336C14.5391 11.1328 14.5352 11.1328 14.4258 11.2266ZM15.8984 12.1484V12.5391H15.4102H14.9219V12.1484V11.7578H15.4102H15.8984V12.1484Z" fill="black"/>
<path d="M3.57422 14.668C3.47656 14.7617 3.47656 14.7656 3.47656 15.5625C3.47656 16 3.48828 16.3906 3.5 16.4258C3.55859 16.5781 3.71094 16.6016 4.60547 16.6016C5.45703 16.6016 5.46484 16.6016 5.57422 16.5078L5.68359 16.4141L5.69531 15.6602C5.70312 15.2461 5.69922 14.8672 5.6875 14.8164C5.67188 14.7695 5.625 14.6914 5.57812 14.6484C5.49609 14.5742 5.44141 14.5703 4.58203 14.5703H3.66797L3.57422 14.668ZM5.07812 15.5859V15.9766H4.58984H4.10156V15.5859V15.1953H4.58984H5.07812V15.5859Z" fill="black"/>
<path d="M7.18359 14.6719C7.08984 14.7695 7.08984 14.7773 7.08984 15.5938V16.4141L7.19922 16.5078C7.30859 16.6016 7.31641 16.6016 8.16797 16.6016C9.0625 16.6016 9.21484 16.5781 9.27344 16.4258C9.28516 16.3906 9.29688 16 9.29688 15.5625C9.29688 14.7656 9.29688 14.7617 9.19922 14.668L9.10547 14.5703H8.19141H7.27734L7.18359 14.6719ZM8.67188 15.5859V15.9805L8.19531 15.9688L7.71484 15.957L7.70312 15.5742L7.69141 15.1953H8.18359H8.67188V15.5859Z" fill="black"/>
<path d="M10.8008 14.668C10.7031 14.7617 10.7031 14.7656 10.7031 15.5625C10.7031 16 10.7148 16.3906 10.7266 16.4258C10.7852 16.5781 10.9375 16.6016 11.832 16.6016C12.6836 16.6016 12.6914 16.6016 12.8008 16.5078L12.9102 16.4141V15.5859V14.7578L12.8008 14.6641C12.6914 14.5703 12.6875 14.5703 11.793 14.5703H10.8945L10.8008 14.668ZM12.2969 15.5742L12.2852 15.957L11.8086 15.9688L11.3281 15.9805V15.5859V15.1953H11.8164H12.3086L12.2969 15.5742Z" fill="black"/>
</svg>
