<svg width="25" height="25" viewBox="0 0 25 25" fill="none" xmlns="http://www.w3.org/2000/svg">
<path d="M12.1573 0.7614C12.0729 0.803588 9.46783 3.37175 6.37232 6.47253C0.255135 12.595 0.619002 12.1995 0.713924 12.6952C0.761385 12.9536 1.07779 13.27 1.33619 13.3175C1.83189 13.4124 1.46803 13.7446 7.21607 8.00183L12.5001 2.71785L17.7893 8.00183C23.5321 13.7446 23.1682 13.4124 23.6639 13.3175C23.9223 13.27 24.2387 12.9536 24.2862 12.6952C24.3811 12.1995 24.745 12.595 18.6278 6.46726C15.3319 3.17136 12.9325 0.803588 12.8323 0.7614C12.6213 0.671752 12.3629 0.671752 12.1573 0.7614Z" fill="black"/>
<path d="M3.71965 14.2613C3.50344 14.3563 3.28195 14.6252 3.24504 14.8361C3.22922 14.9311 3.22394 16.3233 3.23449 17.9317C3.25558 21.2223 3.23976 21.0852 3.66691 21.9658C4.07824 22.8096 4.74797 23.474 5.61281 23.8906C6.49348 24.3125 6.01887 24.2861 12.4999 24.2861C19.0179 24.2861 18.5116 24.3178 19.4345 23.8643C20.5208 23.3264 21.3171 22.3613 21.6599 21.1485C21.7443 20.832 21.7548 20.5578 21.7548 17.7629C21.7548 14.7729 21.7548 14.7201 21.6441 14.5777C21.4384 14.2983 21.2696 14.2139 20.9374 14.2139C20.6052 14.2139 20.4364 14.2983 20.2308 14.5777C20.1253 14.7201 20.12 14.794 20.0937 17.6838C20.0673 20.5526 20.062 20.658 19.9566 20.9481C19.6876 21.6547 19.1234 22.219 18.4167 22.4879C18.1161 22.5986 18.0898 22.5986 12.6845 22.6145C8.79269 22.625 7.1632 22.6145 6.93644 22.5723C6.57258 22.5037 6.09269 22.2717 5.79738 22.0291C5.52316 21.8024 5.18566 21.3172 5.04855 20.9481C4.93781 20.658 4.93254 20.5578 4.90617 17.6838C4.8798 14.794 4.87453 14.7201 4.76906 14.5777C4.71105 14.4986 4.60031 14.3826 4.52648 14.3299C4.35246 14.1981 3.93058 14.1611 3.71965 14.2613Z" fill="black"/>
</svg>
