<svg width="20" height="20" viewBox="0 0 20 20" fill="none" xmlns="http://www.w3.org/2000/svg">
<path d="M9.10156 0.0390625C7.17188 0.226562 5.39062 0.9375 3.82812 2.14062C3.06641 2.72656 2.07812 3.82812 1.50781 4.72656C1.26172 5.11328 0.78125 6.09766 0.609375 6.56641C0.417969 7.08984 0.210938 7.89453 0.109375 8.51562C-0.0117188 9.27734 -0.0117188 10.7227 0.109375 11.4844C0.285156 12.5625 0.5625 13.4297 1.03516 14.3945C1.55078 15.4453 2.08594 16.1914 2.94531 17.0547C3.80859 17.9141 4.55469 18.4492 5.60547 18.9648C6.57031 19.4375 7.4375 19.7148 8.51562 19.8906C9.27734 20.0117 10.7227 20.0117 11.4844 19.8906C12.5625 19.7148 13.4297 19.4375 14.3945 18.9648C15.4453 18.4492 16.1914 17.9141 17.0547 17.0547C17.9141 16.1914 18.4492 15.4453 18.9648 14.3945C19.3086 13.6953 19.4805 13.2383 19.668 12.5352C19.9141 11.5977 19.9727 11.0859 19.9727 10C19.9727 8.91406 19.9141 8.40234 19.668 7.46484C19.4805 6.76172 19.3086 6.30469 18.9648 5.60547C18.4492 4.55469 17.9141 3.80859 17.0547 2.94531C16.1914 2.08594 15.4453 1.55078 14.3945 1.03516C13.4336 0.5625 12.543 0.28125 11.5039 0.117188C10.9297 0.0273438 9.64844 -0.015625 9.10156 0.0390625ZM10.9297 1.60547C12.8359 1.8125 14.5781 2.66016 15.9609 4.03906C17.582 5.66016 18.4375 7.72266 18.4375 10C18.4375 12.2773 17.582 14.3398 15.9609 15.9609C14.3398 17.582 12.2773 18.4375 10 18.4375C7.72266 18.4375 5.66016 17.582 4.03906 15.9609C2.41797 14.3398 1.5625 12.2773 1.5625 10C1.5625 7.72266 2.41797 5.66016 4.03906 4.03906C5.40234 2.67578 7.16406 1.81641 9.02344 1.60547C9.45312 1.55859 10.4922 1.55469 10.9297 1.60547Z" fill="#3400CA"/>
<path d="M9.66395 4.72274C9.47645 4.80867 9.32411 4.99617 9.2577 5.21492C9.22645 5.3282 9.21864 6.05477 9.22645 7.81258C9.23817 10.1915 9.24208 10.2579 9.3202 10.4102C9.3827 10.5352 9.6952 10.793 10.9608 11.7501C11.8163 12.4024 12.5975 12.9805 12.6952 13.0391C13.3475 13.4298 14.1171 12.7305 13.789 12.0509C13.7108 11.8868 13.5507 11.7579 12.2421 10.7735L10.7811 9.67977V7.50008C10.7811 5.97664 10.7694 5.28524 10.7382 5.19149C10.6249 4.85945 10.3397 4.64852 9.99989 4.64852C9.90223 4.64852 9.74989 4.68367 9.66395 4.72274Z" fill="#3400CA"/>
</svg>
