<svg width="20" height="16" viewBox="0 0 20 16" fill="none" xmlns="http://www.w3.org/2000/svg">
<path d="M1.34766 1.02344C1.01953 1.10547 0.773438 1.24609 0.523438 1.49609C0.269531 1.75 0.113281 2.02734 0.0429688 2.36719C-0.0195312 2.66406 -0.0195312 13.3438 0.0429688 13.6328C0.1875 14.3008 0.734375 14.8477 1.39844 14.9883C1.69141 15.0508 18.3086 15.0508 18.6016 14.9883C19.2656 14.8477 19.8164 14.293 19.957 13.6328C20.0195 13.3359 20.0195 2.65625 19.957 2.36719C19.8125 1.69531 19.2695 1.15234 18.6016 1.01172C18.2852 0.945312 1.61328 0.957031 1.34766 1.02344ZM14.1992 5.93359C12.1133 8.01562 10.3633 9.75 10.3047 9.78125C10.168 9.85156 9.83203 9.85156 9.69531 9.78125C9.63672 9.75 7.88672 8.01562 5.80078 5.93359L2.01172 2.14062H10H17.9883L14.1992 5.93359ZM3.69922 10.5273L1.17188 13.0586V8V2.94141L3.69922 5.47266L6.23047 8L3.69922 10.5273ZM18.8281 8.00781V13.0586L16.3008 10.5312L13.7695 8L16.2891 5.48047C17.6758 4.09375 18.8125 2.96094 18.8164 2.96094C18.8242 2.96094 18.8281 5.23438 18.8281 8.00781ZM7.96484 9.76953C8.80469 10.6016 8.91406 10.6953 9.19531 10.8359L9.50781 10.9883H9.99609C10.4844 10.9883 10.4922 10.9883 10.7969 10.8398C11.082 10.7031 11.1719 10.625 12.0391 9.76953L12.9727 8.84375L15.4805 11.3516L17.9883 13.8594H10H2.01172L4.51172 11.3594C5.88672 9.98438 7.01953 8.85938 7.02734 8.85938C7.03906 8.85938 7.46094 9.26953 7.96484 9.76953Z" fill="#3400CA"/>
</svg>
