<svg width="18" height="18" viewBox="0 0 18 18" fill="none" xmlns="http://www.w3.org/2000/svg">
<path d="M8.74614 0.304849C8.68364 0.336099 6.75396 2.23844 4.46099 4.53532C-0.0702615 9.07047 0.19927 8.77751 0.269582 9.14469C0.304738 9.3361 0.539113 9.57047 0.73052 9.60563C1.09771 9.67594 0.828176 9.92204 5.08599 5.66813L9.00005 1.75407L12.918 5.66813C17.1719 9.92204 16.9024 9.67594 17.2696 9.60563C17.461 9.57047 17.6954 9.3361 17.7305 9.14469C17.8008 8.77751 18.0704 9.07047 13.5391 4.53141C11.0977 2.09001 9.32036 0.336099 9.24614 0.304849C9.08989 0.238442 8.89849 0.238442 8.74614 0.304849Z" fill="#000"/>
<path d="M2.49625 10.3048C2.3361 10.3751 2.17203 10.5744 2.14469 10.7306C2.13297 10.8009 2.12906 11.8322 2.13688 13.0236C2.1525 15.4611 2.14078 15.3595 2.45719 16.0119C2.76188 16.6369 3.25797 17.129 3.8986 17.4376C4.55094 17.7501 4.19938 17.7306 9.00016 17.7306C13.8283 17.7306 13.4533 17.754 14.1369 17.4181C14.9416 17.0197 15.5314 16.3048 15.7853 15.4064C15.8478 15.172 15.8556 14.9689 15.8556 12.8986C15.8556 10.6837 15.8556 10.6447 15.7736 10.5392C15.6213 10.3322 15.4963 10.2697 15.2502 10.2697C15.0041 10.2697 14.8791 10.3322 14.7267 10.5392C14.6486 10.6447 14.6447 10.6994 14.6252 12.84C14.6056 14.965 14.6017 15.0431 14.5236 15.2579C14.3244 15.7814 13.9064 16.1994 13.383 16.3986C13.1603 16.4806 13.1408 16.4806 9.13688 16.4923C6.25406 16.5001 5.04703 16.4923 4.87906 16.4611C4.60953 16.4103 4.25406 16.2384 4.03531 16.0587C3.83219 15.8908 3.58219 15.5314 3.48063 15.2579C3.3986 15.0431 3.39469 14.9689 3.37516 12.84C3.35563 10.6994 3.35172 10.6447 3.2736 10.5392C3.23063 10.4806 3.1486 10.3947 3.09391 10.3556C2.965 10.2579 2.6525 10.2306 2.49625 10.3048Z" fill="#000"/>
</svg>
