<svg width="64" height="63" viewBox="0 0 64 63" fill="none" xmlns="http://www.w3.org/2000/svg">
<path d="M37.3125 0.3125L37 0.612499V17V33.3875L37.3125 33.6875L37.6125 34H50H62.3875L62.6875 33.6875L63 33.3875V17V0.612499L62.6875 0.3125L62.3875 0H50H37.6125L37.3125 0.3125ZM61 17V32H50H39V17V2H50H61V17Z" fill="#2E00A0"/>
<path d="M42.3125 5.3125C42.1125 5.5 42 5.7625 42 6C42 6.2375 42.1125 6.5 42.3125 6.6875L42.6125 7H48H53.3875L53.6875 6.6875C53.8875 6.5 54 6.2375 54 6C54 5.7625 53.8875 5.5 53.6875 5.3125L53.3875 5H48H42.6125L42.3125 5.3125Z" fill="#2E00A0"/>
<path d="M42.3125 10.3125C42.1125 10.5 42 10.7625 42 11C42 11.2375 42.1125 11.5 42.3125 11.6875C42.6 11.9875 42.7 12 44 12C45.3 12 45.4 11.9875 45.6875 11.6875C45.8875 11.5 46 11.2375 46 11C46 10.7625 45.8875 10.5 45.6875 10.3125C45.4 10.0125 45.3 10 44 10C42.7 10 42.6 10.0125 42.3125 10.3125Z" fill="#2E00A0"/>
<path d="M49.3125 10.3125C49.1125 10.5 49 10.7625 49 11C49 11.2375 49.1125 11.5 49.3125 11.6875L49.6125 12H53.5H57.3875L57.6875 11.6875C57.8875 11.5 58 11.2375 58 11C58 10.7625 57.8875 10.5 57.6875 10.3125L57.3875 10H53.5H49.6125L49.3125 10.3125Z" fill="#2E00A0"/>
<path d="M42.3125 14.3125C42.1125 14.5 42 14.7625 42 15C42 15.2375 42.1125 15.5 42.3125 15.6875L42.6125 16H50H57.3875L57.6875 15.6875C57.8875 15.5 58 15.2375 58 15C58 14.7625 57.8875 14.5 57.6875 14.3125L57.3875 14H50H42.6125L42.3125 14.3125Z" fill="#2E00A0"/>
<path d="M42.3125 19.3125C42.1125 19.5 42 19.7625 42 20C42 20.2375 42.1125 20.5 42.3125 20.6875L42.6125 21H46.5H50.3875L50.6875 20.6875C50.8875 20.5 51 20.2375 51 20C51 19.7625 50.8875 19.5 50.6875 19.3125L50.3875 19H46.5H42.6125L42.3125 19.3125Z" fill="#2E00A0"/>
<path d="M54.3125 19.3125C54.1125 19.5 54 19.7625 54 20C54 20.2375 54.1125 20.5 54.3125 20.6875C54.6 20.9875 54.7 21 56 21C57.3 21 57.4 20.9875 57.6875 20.6875C57.8875 20.5 58 20.2375 58 20C58 19.7625 57.8875 19.5 57.6875 19.3125C57.4 19.0125 57.3 19 56 19C54.7 19 54.6 19.0125 54.3125 19.3125Z" fill="#2E00A0"/>
<path d="M42.3125 23.3125C42.1125 23.5 42 23.7625 42 24C42 24.2375 42.1125 24.5 42.3125 24.6875L42.6125 25H50H57.3875L57.6875 24.6875C57.8875 24.5 58 24.2375 58 24C58 23.7625 57.8875 23.5 57.6875 23.3125L57.3875 23H50H42.6125L42.3125 23.3125Z" fill="#2E00A0"/>
<path d="M42.3125 27.3125C42.1125 27.5 42 27.7625 42 28C42 28.2375 42.1125 28.5 42.3125 28.6875L42.6125 29H45.5H48.3875L48.6875 28.6875C48.8875 28.5 49 28.2375 49 28C49 27.7625 48.8875 27.5 48.6875 27.3125L48.3875 27H45.5H42.6125L42.3125 27.3125Z" fill="#2E00A0"/>
<path d="M3.0001 3.1624C2.3876 3.3624 1.3376 4.4374 1.1501 5.0749C0.937598 5.8249 0.937598 30.1749 1.1501 30.9249C1.3501 31.6124 2.3876 32.6499 3.0751 32.8499C3.8251 33.0624 30.1751 33.0624 30.9251 32.8499C31.6126 32.6499 32.6501 31.6124 32.8501 30.9249C33.0626 30.1874 33.0626 5.8124 32.8501 5.0999C32.7751 4.8249 32.4626 4.3249 32.1626 3.9999C31.2001 2.9249 32.2626 2.9999 16.9501 3.0124C7.4751 3.0249 3.3126 3.0624 3.0001 3.1624ZM30.6876 5.3124L31.0001 5.6124V17.9999V30.3874L30.6876 30.6874L30.3876 30.9999H17.0001H3.6126L3.3126 30.6874L3.0001 30.3874V17.9999V5.6124L3.3126 5.3124L3.6126 4.9999H17.0001H30.3876L30.6876 5.3124Z" fill="#2E00A0"/>
<path d="M20.0627 8.1123C18.9127 8.4123 17.9002 9.2373 17.3752 10.3123C17.1377 10.8248 17.0752 11.1373 17.0752 11.9998C17.0627 12.9748 17.1002 13.1248 17.4877 13.8498C17.9627 14.7248 18.3627 15.0998 19.3002 15.5998C19.8377 15.8748 20.1002 15.9248 21.0002 15.9248C21.9002 15.9248 22.1627 15.8748 22.7002 15.5998C23.6377 15.0998 24.0377 14.7248 24.5127 13.8498C24.9002 13.1248 24.9377 12.9748 24.9252 11.9998C24.9252 11.0998 24.8752 10.8373 24.6002 10.2998C24.1127 9.3623 23.7252 8.9623 22.8877 8.5123C22.0752 8.0873 20.8377 7.8998 20.0627 8.1123ZM21.7877 10.1748C23.0752 10.7123 23.3877 12.3873 22.3877 13.3873C21.5752 14.1998 20.4252 14.1998 19.6127 13.3873C18.0627 11.8498 19.7752 9.3248 21.7877 10.1748Z" fill="#2E00A0"/>
<path d="M8.7875 19.7875C5.3625 23.2 5 23.6 5 23.975C5 24.525 5.475 25 6.025 25C6.3875 25 6.7625 24.6625 9.7125 21.725L13 18.45L16.2875 21.725C19.2875 24.7125 19.6125 25 20 25C20.375 25 20.6125 24.8 22.2125 23.225L24 21.45L25.7875 23.225C27.3 24.725 27.6375 25 27.9625 25C28.4875 25 29 24.5 29 23.975C29 23.6125 28.75 23.3125 26.7125 21.2875C24.65 19.225 24.3875 19 24 19C23.625 19 23.3875 19.1875 21.7875 20.775L20 22.55L16.7125 19.275C13.6875 16.2625 13.3875 16 13 16C12.6 16 12.275 16.2875 8.7875 19.7875Z" fill="#2E00A0"/>
<path d="M12.7001 36.1375C10.0126 36.5 7.2876 37.6 5.2751 39.125C1.9876 41.6 0.462604 45.175 1.2001 48.7125C1.5376 50.3875 2.1876 51.6875 3.4001 53.1375L4.0001 53.8625V57.625V61.3875L4.3126 61.6875C4.5001 61.8875 4.7501 62 5.0126 62C5.3751 62 5.6876 61.725 7.7751 59.6625L10.1126 57.325L11.0251 57.5375C14.8126 58.425 19.0501 57.9625 22.4126 56.3C25.8626 54.6 28.1501 51.8875 28.8001 48.725C29.7001 44.3875 27.1876 40.05 22.4126 37.7C20.1876 36.6 18.2251 36.1375 15.5001 36.0625C14.4376 36.0375 13.1751 36.0625 12.7001 36.1375ZM17.0001 38.125C20.1251 38.5375 22.6001 39.7 24.5626 41.675C26.3251 43.45 26.9376 44.825 26.9376 47C26.9376 49.0875 26.3376 50.5 24.7251 52.2C21.4876 55.6 15.8126 56.875 10.6001 55.3625C9.9251 55.1625 9.7001 55.15 9.4751 55.2625C9.3126 55.3375 8.4751 56.1125 7.6001 56.975L6.0001 58.5625V55.8V53.025L5.1751 52.1125C3.6126 50.375 3.0626 49.0375 3.0626 47C3.0626 45.5625 3.2376 44.8875 3.9251 43.5625C4.4501 42.55 6.2876 40.7 7.4626 40.0125C10.2376 38.375 13.6626 37.7 17.0001 38.125Z" fill="#2E00A0"/>
<path d="M7.4375 45.6125C6.875 45.8625 6.5625 46.3625 6.5625 47.0125C6.5625 47.5375 6.625 47.675 6.975 48.025C7.325 48.375 7.4625 48.4375 8 48.4375C8.5375 48.4375 8.675 48.375 9.025 48.025C9.375 47.675 9.4375 47.5375 9.4375 47C9.4375 46.475 9.375 46.325 9.05 45.9875C8.6375 45.575 7.9 45.4125 7.4375 45.6125Z" fill="#2E00A0"/>
<path d="M14.4375 45.6125C13.875 45.8625 13.5625 46.3625 13.5625 47.0125C13.5625 47.5375 13.625 47.675 13.975 48.025C14.325 48.375 14.4625 48.4375 15 48.4375C15.5375 48.4375 15.675 48.375 16.025 48.025C16.375 47.675 16.4375 47.5375 16.4375 47C16.4375 46.475 16.375 46.325 16.05 45.9875C15.6375 45.575 14.9 45.4125 14.4375 45.6125Z" fill="#2E00A0"/>
<path d="M21.4375 45.6125C20.875 45.8625 20.5625 46.3625 20.5625 47.0125C20.5625 47.5375 20.625 47.675 20.975 48.025C21.325 48.375 21.4625 48.4375 22 48.4375C22.5375 48.4375 22.675 48.375 23.025 48.025C23.375 47.675 23.4375 47.5375 23.4375 47C23.4375 46.475 23.375 46.325 23.05 45.9875C22.6375 45.575 21.9 45.4125 21.4375 45.6125Z" fill="#2E00A0"/>
<path d="M33.0001 37.1624C32.3876 37.3624 31.3376 38.4374 31.1501 39.0749C30.9376 39.8124 30.9376 59.1874 31.1501 59.9249C31.3501 60.6124 32.3876 61.6499 33.0751 61.8499C33.8251 62.0624 60.1751 62.0624 60.9251 61.8499C61.6126 61.6499 62.6501 60.6124 62.8501 59.9249C63.0626 59.1874 63.0626 39.8124 62.8501 39.0999C62.7751 38.8249 62.4626 38.3249 62.1626 37.9999C61.2001 36.9249 62.2626 36.9999 46.9501 37.0124C37.4751 37.0249 33.3126 37.0624 33.0001 37.1624ZM60.6876 39.3124L61.0001 39.6124V49.4999V59.3874L60.6876 59.6874L60.3876 59.9999H47.0001H33.6126L33.3126 59.6874L33.0001 59.3874V49.4999V39.6124L33.3126 39.3124L33.6126 38.9999H47.0001H60.3876L60.6876 39.3124Z" fill="#2E00A0"/>
<path d="M43.3125 41.175C42.85 41.3875 42.3125 41.95 42.1375 42.4125C42.05 42.6375 42 44.3125 42 47C42 49.6875 42.05 51.3625 42.1375 51.5875C42.4375 52.4 43.325 53 44.2125 53C44.725 53 45.1 52.8 49.675 50.1875C52.525 48.55 52.85 48.25 52.9625 47.2C53.075 46.275 52.6625 45.625 51.5875 44.95C50.425 44.2375 45.8375 41.6125 45.1625 41.2625C44.5625 40.9625 43.8625 40.925 43.3125 41.175ZM47.6125 44.95C49.475 46.025 51 46.95 51 47C51 47.1125 44.3 51 44.1125 51C44.05 51 44 49.325 44 47C44 44.7625 44.05 43 44.1125 43C44.175 43 45.75 43.875 47.6125 44.95Z" fill="#2E00A0"/>
<path d="M53.3125 54.3123C53.1375 54.4748 53 54.6998 53 54.8123C53 54.9748 52.1125 54.9998 44.8125 54.9998H36.6125L36.3125 55.3123C36.1125 55.4998 36 55.7623 36 55.9998C36 56.2373 36.1125 56.4998 36.3125 56.6873L36.6125 56.9998H44.775H52.9375L53.125 57.4123C53.35 57.8873 53.85 58.0998 54.35 57.9248C54.5375 57.8623 54.7625 57.6373 54.875 57.4123L55.0625 56.9998H56.225C57.2875 56.9998 57.4125 56.9748 57.6875 56.6873C57.8875 56.4998 58 56.2373 58 55.9998C58 55.7623 57.8875 55.4998 57.6875 55.3123C57.4125 55.0248 57.2875 54.9998 56.1875 54.9998C55.2 54.9998 55 54.9623 55 54.8123C55 54.4748 54.4125 53.9998 54 53.9998C53.7625 53.9998 53.5 54.1123 53.3125 54.3123Z" fill="#2E00A0"/>
</svg>
