<svg width="62" height="64" viewBox="0 0 62 64" fill="none" xmlns="http://www.w3.org/2000/svg">
<path d="M27.3121 0.149998C26.9746 0.212498 26.2121 0.487499 25.6371 0.762501C23.8871 1.6125 22.5746 3.15 21.9246 5.125C21.7121 5.7625 21.6871 6.5125 21.6496 15.025L21.6121 24.2375L13.6496 24.275L5.68714 24.3125L4.81214 24.6625C2.96214 25.4 1.39964 26.9625 0.662142 28.8125L0.312142 29.6875L0.274642 39.5625C0.249642 46.5375 0.274642 49.6625 0.374642 50.1875C0.824642 52.55 2.82464 54.7625 5.18714 55.4875C5.59964 55.6125 6.34964 55.7625 6.86214 55.8125C7.76214 55.9 7.79964 55.925 8.29964 56.4875C10.3246 58.775 12.3371 60.5875 14.9371 62.45C16.5246 63.6 17.2871 64 17.8246 64C18.3371 64 19.0121 63.6125 19.3496 63.125C19.7746 62.4875 19.7246 61.8 19.1121 60.45C18.5621 59.225 17.8246 57.1 17.6871 56.35L17.5996 55.8875L26.0121 55.85C34.3996 55.8125 34.4371 55.8125 35.2871 55.525C37.5996 54.75 39.2621 53.0875 40.0246 50.8125C40.2871 50 40.3121 49.7375 40.3121 47.2125C40.3121 44.4875 40.3121 44.475 40.0121 44.2375C39.6121 43.9125 39.0996 43.9375 38.7746 44.2875C38.5121 44.5625 38.4996 44.6875 38.4996 46.775C38.4996 49.2875 38.3996 50.0125 37.8746 51.075C37.1621 52.5375 35.6871 53.6 33.9996 53.8625C33.4996 53.95 30.1246 54 25.1246 54C17.2996 54 17.0496 54.0125 16.6496 54.25C15.9621 54.675 15.7246 55.1875 15.7871 56.125C15.8496 57.025 16.5246 59.2125 17.2621 60.9C17.5121 61.5125 17.6996 62 17.6621 62C17.5371 62 15.8621 60.85 14.7746 60.0125C13.0371 58.6625 11.3621 57.1125 10.1871 55.7625C9.56214 55.0375 8.91214 54.425 8.63714 54.3C8.38714 54.175 7.64964 54.0125 6.98714 53.925C4.86214 53.65 3.41214 52.6625 2.58714 50.9125L2.18714 50.0625V40V29.9375L2.59964 29.0875C3.13714 28.0125 4.01214 27.1375 5.08714 26.6L5.93714 26.1875L13.8871 26.15L21.8371 26.1125L21.9871 26.65C22.4496 28.2 23.8996 29.9625 25.3371 30.725C26.9371 31.575 27.4246 31.625 33.2746 31.625H38.4996V36.3V40.9875L38.8246 41.2375C39.3621 41.6625 39.8996 41.5625 40.1871 40.9875C40.3371 40.7 40.3746 39.8375 40.3746 36.125V31.625H42.3746C44.2121 31.625 44.3746 31.6375 44.3746 31.85C44.3746 32.2625 43.6121 34.55 42.9746 36.0375C42.4246 37.325 42.3496 37.6125 42.3996 38.1375C42.4996 39.175 43.3246 39.825 44.3871 39.725C44.8621 39.675 45.2371 39.4875 46.2496 38.8125C48.3871 37.3875 49.9621 36.0625 52.1996 33.8125L54.3371 31.6625L55.2121 31.5875C57.6746 31.35 59.8246 29.95 60.9621 27.8125C61.7621 26.2875 61.7496 26.525 61.7496 15.8125C61.7496 7.375 61.7246 6 61.5496 5.3375C60.9121 2.8375 58.9496 0.887501 56.4371 0.25C55.5246 0.0125008 55.0496 0 49.5621 0C43.7746 0 43.6496 0 43.3246 0.262501C42.9121 0.587498 42.8746 1.225 43.2621 1.575C43.5121 1.8 43.8496 1.8125 49.7371 1.875L55.9371 1.9375L56.7746 2.3375C58.1871 3 59.1496 4.0625 59.6371 5.475C59.8621 6.125 59.8746 6.6625 59.8746 15.8125C59.8746 25.0375 59.8621 25.4875 59.6371 26.1625C59.1871 27.45 58.2246 28.5625 57.0246 29.175C56.4496 29.4625 55.6746 29.6375 54.2371 29.8125C53.4996 29.9 52.8371 30.3375 52.1246 31.2125C51.2996 32.2125 49.0996 34.3125 47.7496 35.4C46.4996 36.4 44.3496 37.8875 44.2746 37.8125C44.2496 37.7875 44.3246 37.6 44.4246 37.3875C45.2121 35.875 46.2496 32.6 46.2496 31.65C46.2496 30.975 45.8871 30.3375 45.3371 30.025C44.9746 29.8375 44.1746 29.8125 36.2496 29.75L27.5621 29.6875L26.6246 29.2375C25.0371 28.475 23.9371 27.0625 23.6246 25.3875C23.4496 24.4375 23.4621 7.15 23.6371 6.1875C23.9121 4.725 24.8746 3.325 26.1371 2.5875C27.2871 1.9125 27.6621 1.875 34.0371 1.875H39.8871L40.1871 1.5625C40.3621 1.4 40.4996 1.1125 40.4996 0.9375C40.4996 0.762501 40.3621 0.474998 40.1871 0.3125L39.8871 0L33.9121 0.0125008C30.6246 0.0249977 27.6621 0.0750008 27.3121 0.149998Z" fill="#2E00A0"/>
<path d="M41.2747 7.4125C40.8872 7.825 40.9122 8.4125 41.3247 8.7375C41.6497 9 41.7622 9 48.5747 9C53.4747 9 55.5747 8.9625 55.7997 8.8625C56.2247 8.6625 56.3872 8.15 56.1872 7.6625C56.0997 7.4625 55.9372 7.25 55.8122 7.2C55.6997 7.1625 52.4372 7.125 48.5747 7.125H41.5372L41.2747 7.4125Z" fill="#2E00A0"/>
<path d="M34.8748 11.0751C34.6373 11.1751 33.6998 12.0001 32.7873 12.9001L31.1373 14.5376L30.4498 13.9001C29.5623 13.1001 28.7873 12.8876 27.8123 13.1876C27.1248 13.3876 26.3623 14.0626 26.1373 14.6626C25.9373 15.1751 25.9748 16.1876 26.1873 16.7126C26.4248 17.2751 29.1123 20.0251 29.8623 20.4751C30.5623 20.8876 31.5748 20.9126 32.3123 20.5251C32.5873 20.3876 33.9998 19.0751 35.5123 17.5376C37.7123 15.3126 38.2248 14.7126 38.3498 14.3001C38.5623 13.5751 38.5373 13.0251 38.2623 12.4376C37.6623 11.1501 36.1373 10.5376 34.8748 11.0751ZM36.3998 12.9626C36.9123 13.4251 36.7498 13.6751 34.2248 16.2251C32.8998 17.5501 31.6623 18.7251 31.4748 18.8251C30.9748 19.0876 30.6873 18.9001 29.1623 17.3376C28.0873 16.2501 27.8748 15.9751 27.8748 15.6501C27.8748 15.1876 28.3248 14.8126 28.6998 14.9501C28.8248 15.0001 29.3123 15.4001 29.7748 15.8376C30.5248 16.5501 30.6498 16.6251 31.1373 16.6251C31.6498 16.6251 31.7123 16.5751 33.6248 14.6876C35.6623 12.6751 35.9123 12.5251 36.3998 12.9626Z" fill="#2E00A0"/>
<path d="M41.3245 11.2625C40.8995 11.6 40.8745 12.225 41.287 12.6L41.5745 12.875H48.587C52.4495 12.875 55.6995 12.8375 55.812 12.8C55.937 12.75 56.0995 12.5375 56.187 12.3375C56.387 11.85 56.2245 11.3375 55.7995 11.1375C55.5745 11.0375 53.4745 11 48.5745 11C41.762 11 41.6495 11 41.3245 11.2625Z" fill="#2E00A0"/>
<path d="M41.5373 15C40.9873 15.225 40.8248 16.075 41.2498 16.5C41.4998 16.75 41.6623 16.75 48.6123 16.75C55.2123 16.75 55.7373 16.7375 55.9873 16.525C56.3998 16.2 56.3748 15.5375 55.9498 15.1625L55.6123 14.875L48.7123 14.8875C44.9123 14.8875 41.6873 14.9375 41.5373 15Z" fill="#2E00A0"/>
<path d="M41.5499 18.925C40.9499 19.1875 40.7999 19.925 41.2499 20.375C41.4999 20.625 41.6624 20.625 48.6624 20.625C55.5499 20.625 55.8499 20.6125 56.0499 20.3875C56.3624 20.05 56.3499 19.4125 56.0124 19.0875L55.7374 18.8125L48.8374 18.7875C43.2249 18.7625 41.8624 18.7875 41.5499 18.925Z" fill="#2E00A0"/>
<path d="M41.2495 23C40.937 23.3125 40.9245 23.8875 41.237 24.2625L41.4745 24.5625L45.1745 24.6L48.887 24.6375L49.262 24.25C49.5745 23.9375 49.637 23.8 49.562 23.525C49.362 22.7375 49.462 22.75 45.287 22.75C41.662 22.75 41.487 22.7625 41.2495 23Z" fill="#2E00A0"/>
<path d="M18.5125 32.1999C18.1875 32.6124 18.175 33.0124 18.4875 33.3874C18.725 33.6749 18.8 33.6874 20.7625 33.7249C22.9875 33.7749 23.2625 33.7374 23.625 33.3749C23.95 33.0499 23.9375 32.6249 23.6125 32.1999L23.3625 31.8749H21.0625H18.7625L18.5125 32.1999Z" fill="#2E00A0"/>
<path d="M6.2498 35.5124C5.2498 35.9124 4.6123 36.8624 4.6123 37.9374C4.6123 38.7624 4.8498 39.2999 5.4998 39.9374C5.7748 40.2124 5.9998 40.4874 5.9998 40.5624C5.9998 40.6374 5.7998 40.8999 5.5498 41.1374C4.8998 41.7624 4.6248 42.3624 4.6248 43.1874C4.6248 44.6874 5.6873 45.7499 7.1873 45.7499C7.9498 45.7499 8.4998 45.4999 9.2248 44.8249L9.8248 44.2624L10.3748 44.8124C11.7748 46.2374 13.8498 46.0124 14.6873 44.3374C14.8623 43.9624 14.9998 43.4874 14.9998 43.1874C14.9998 42.5499 14.5248 41.5749 13.9498 41.0124L13.5123 40.5874L14.1248 39.9124C15.0123 38.9374 15.2248 37.9374 14.7623 36.9374C14.1498 35.6124 12.5998 35.0124 11.3123 35.6124C11.0373 35.7374 10.5873 36.0749 10.3248 36.3499L9.8373 36.8624L9.2873 36.3624C8.3373 35.4874 7.1498 35.1499 6.2498 35.5124ZM8.4498 38.1374C9.3623 38.9874 9.4248 39.0249 9.8998 38.9624C10.2998 38.9124 10.5623 38.7374 11.2498 38.0749C12.1373 37.2124 12.4873 37.0874 12.8998 37.4624C13.3123 37.8374 13.1748 38.2124 12.2498 39.1874C11.4998 39.9749 11.3748 40.1749 11.3748 40.5624C11.3748 40.9374 11.5123 41.1499 12.2498 41.9499C13.1623 42.9249 13.2873 43.2499 12.9123 43.6499C12.5373 44.0624 12.1123 43.9374 11.3748 43.1749C10.0623 41.8499 9.6373 41.8249 8.3623 43.0624C7.7248 43.6874 7.4373 43.8749 7.1623 43.8749C6.6998 43.8749 6.4998 43.6749 6.4998 43.1874C6.4998 42.8874 6.6498 42.6499 7.2373 42.0749C8.5248 40.8124 8.5248 40.3249 7.2498 39.0624C6.6373 38.4624 6.4998 38.2499 6.4998 37.9124C6.4998 37.4874 6.7373 37.2624 7.2123 37.2499C7.3748 37.2499 7.8498 37.5874 8.4498 38.1374Z" fill="#2E00A0"/>
<path d="M18.5625 36.0625C18.3875 36.225 18.25 36.5125 18.25 36.6875C18.25 36.8625 18.3875 37.15 18.5625 37.3125L18.8625 37.625H25.9125C32.625 37.625 32.9875 37.6125 33.2625 37.3875C33.6625 37.0625 33.6625 36.3125 33.2625 35.9875C32.9875 35.7625 32.625 35.75 25.9125 35.75H18.8625L18.5625 36.0625Z" fill="#2E00A0"/>
<path d="M18.5625 39.9375C18.3875 40.1 18.25 40.3875 18.25 40.5625C18.25 40.7375 18.3875 41.025 18.5625 41.1875L18.8625 41.5H25.875C30.5875 41.5 32.975 41.4625 33.1375 41.3625C33.7375 41.05 33.675 39.9875 33.0375 39.7375C32.8625 39.675 29.7 39.625 25.8 39.625H18.8625L18.5625 39.9375Z" fill="#2E00A0"/>
<path d="M18.7873 43.625C18.2123 43.8625 18.0748 44.6625 18.5373 45.1L18.8248 45.375H25.9623H33.1123L33.3623 45.05C33.7123 44.6 33.6873 44.3 33.2623 43.8625L32.8998 43.5L25.9748 43.5125C22.1748 43.5125 18.9373 43.5625 18.7873 43.625Z" fill="#2E00A0"/>
<path d="M18.5 47.775C17.975 48.3375 18.3125 49.1625 19.15 49.3125C19.375 49.35 21.075 49.375 22.9125 49.35L26.275 49.3125L26.575 48.9625C26.9375 48.5375 26.95 48.2625 26.6125 47.825L26.3625 47.5H22.5625C18.8125 47.5 18.7625 47.5 18.5 47.775Z" fill="#2E00A0"/>
</svg>
