<svg width="21" height="21" viewBox="0 0 21 21" fill="none" xmlns="http://www.w3.org/2000/svg">
<path d="M15.2915 20.2804C15.1639 20.2804 15.0363 20.2753 14.9082 20.2663C12.8016 20.1109 10.7846 19.3773 9.09465 18.1517C6.51434 16.2808 4.2223 14.0649 2.28736 11.5703C1.01933 9.9367 0.260396 7.987 0.0998545 5.95056C0.0443336 5.25909 0.144453 4.56425 0.393328 3.91376C0.642204 3.26333 1.03392 2.6727 1.54152 2.18258L2.84673 0.91937C3.3622 0.42195 4.06079 0.142578 4.78918 0.142578C5.51756 0.142578 6.21616 0.42195 6.73163 0.91937L7.91184 2.06074C8.16694 2.30731 8.36928 2.60005 8.50736 2.92222C8.64543 3.2444 8.71647 3.58973 8.71647 3.93843C8.71647 4.28714 8.64543 4.63247 8.50736 4.95464C8.36928 5.27681 8.16694 5.56958 7.91184 5.81613L7.23475 6.47065C6.95668 6.74056 6.78361 7.09505 6.7448 7.47412C6.706 7.85323 6.80381 8.2336 7.02173 8.55099C8.39215 10.5418 10.1588 12.249 12.2186 13.5731C12.547 13.7834 12.9405 13.8778 13.3326 13.8402C13.7246 13.8027 14.0913 13.6357 14.3707 13.3672L15.0478 12.7127C15.3028 12.4661 15.6057 12.2705 15.939 12.137C16.2723 12.0036 16.6295 11.9349 16.9902 11.9349C17.351 11.9349 17.7082 12.0036 18.0415 12.137C18.3748 12.2705 18.6776 12.4661 18.9327 12.7127L20.1134 13.8536C20.3685 14.1002 20.5709 14.3929 20.7089 14.715C20.847 15.0372 20.918 15.3826 20.918 15.7313C20.918 16.08 20.847 16.4253 20.7089 16.7475C20.5709 17.0696 20.3685 17.3624 20.1134 17.609L18.8051 18.8707C18.344 19.3173 17.7963 19.6717 17.1935 19.9136C16.5906 20.1555 15.9443 20.2801 15.2915 20.2804ZM4.78892 1.14845C4.56501 1.14817 4.34319 1.19064 4.13631 1.27341C3.92939 1.35617 3.74142 1.47762 3.58319 1.63078L2.27642 2.89449C1.87514 3.28201 1.56545 3.74898 1.36865 4.26322C1.17183 4.77747 1.09257 5.32686 1.13631 5.87353C1.28257 7.71901 1.97083 9.48579 3.12017 10.9661C4.99605 13.3837 7.21772 15.5313 9.71861 17.3446C11.2499 18.4558 13.0777 19.1212 14.9868 19.2624C15.5523 19.3039 16.1204 19.227 16.6523 19.0368C17.1842 18.8466 17.6673 18.5476 18.0686 18.1603L19.3754 16.897C19.6952 16.5878 19.8748 16.1685 19.8748 15.7313C19.8748 15.294 19.6952 14.8747 19.3754 14.5655L18.1947 13.4246C17.87 13.1245 17.4381 12.9571 16.9889 12.9571C16.5398 12.9571 16.1079 13.1245 15.7832 13.4246L15.1061 14.0791C14.6563 14.512 14.0657 14.7813 13.4342 14.8418C12.8026 14.9022 12.1688 14.75 11.64 14.4109C9.466 13.013 7.60168 11.2108 6.15559 9.10934C5.80465 8.59812 5.64715 7.98544 5.7097 7.37493C5.77225 6.76442 6.051 6.19349 6.49882 5.75874L7.1759 5.10422C7.49569 4.79509 7.67533 4.37585 7.67533 3.93869C7.67533 3.50152 7.49569 3.08228 7.1759 2.77315L5.99517 1.63128C5.83689 1.47802 5.64881 1.35647 5.44183 1.27362C5.23486 1.19076 5.01298 1.14822 4.78892 1.14845Z" fill="#2B1C50"/>
</svg>
