<svg width="16" height="20" viewBox="0 0 16 20" fill="none" xmlns="http://www.w3.org/2000/svg">
<path d="M7.08196 0.0585938C5.42181 0.273438 3.89056 1.02344 2.70306 2.20312C1.50384 3.39844 0.76165 4.9375 0.558525 6.64062C0.453056 7.53516 0.503837 8.33203 0.7304 9.27734C1.39837 12.043 3.57415 15.4805 6.87493 18.9844C7.72649 19.8867 7.85149 20 8.00384 20C8.15228 20 8.38274 19.7852 9.28899 18.8086C12.9257 14.8867 15.0663 11.2461 15.4413 8.34766C15.7265 6.14062 14.9179 3.83203 13.2929 2.20312C12.1757 1.08594 10.8046 0.378906 9.19134 0.0976562C8.69524 0.0078125 7.61321 -0.0117188 7.08196 0.0585938ZM8.83978 4.17188C10.1093 4.51953 11.0038 5.42188 11.3437 6.70312C11.4492 7.10547 11.4452 7.92188 11.332 8.33984C11.1015 9.1875 10.5859 9.91406 9.89056 10.3633C7.66399 11.8047 4.74603 10.3398 4.57415 7.69922C4.51165 6.73047 4.87493 5.78516 5.57806 5.07812C6.09368 4.56641 6.67962 4.25391 7.39446 4.11719C7.76165 4.04688 8.4804 4.07422 8.83978 4.17188Z" fill="#3400CA"/>
</svg>
