<svg width="20" height="19" viewBox="0 0 20 19" fill="none" xmlns="http://www.w3.org/2000/svg">
<path d="M15.1597 18.2372C14.9352 18.2372 14.7119 18.1683 14.5197 18.0311L10.0002 14.79L5.4808 18.0311C5.0958 18.3066 4.57913 18.3066 4.19635 18.0266C3.81358 17.7494 3.65247 17.2572 3.7958 16.8078L5.48135 11.3678L1.00247 8.21164C0.62191 7.93108 0.463576 7.43775 0.609132 6.98775C0.755799 6.53886 1.17358 6.23386 1.6458 6.23053L7.19302 6.22219L8.95913 0.917194C9.10802 0.46775 9.52747 0.165527 10.0002 0.165527C10.473 0.165527 10.8925 0.468305 11.0419 0.917194L12.778 6.22219L18.3536 6.23053C18.8275 6.23386 19.2458 6.53942 19.3908 6.98775C19.5369 7.43775 19.3786 7.93108 18.9975 8.21164L14.5186 11.3678L16.2041 16.8078C16.3486 17.2572 16.1858 17.7494 15.8041 18.0266C15.6114 18.1678 15.3858 18.2372 15.1597 18.2372Z" fill="#FFAC33"/>
</svg>
