<svg width="20" height="20" viewBox="0 0 20 20" fill="none" xmlns="http://www.w3.org/2000/svg">
<path d="M19.9566 7.53907C19.7574 5.60938 18.9059 3.82422 17.5231 2.4375C16.5621 1.47656 15.5152 0.828126 14.2574 0.414063C12.5855 -0.136718 10.8512 -0.136718 9.1793 0.414063C7.91758 0.828126 6.8668 1.48047 5.90977 2.44531C4.01524 4.35156 3.15586 6.94922 3.53477 9.62891C3.73008 11.0078 4.29649 12.3906 5.11289 13.4766C5.20274 13.5938 5.26914 13.6992 5.26524 13.7148C5.25742 13.7305 4.10117 14.9141 2.69492 16.3438C1.09336 17.9727 0.112892 19 0.0699237 19.0938C-0.109764 19.4766 0.116799 19.9063 0.538674 19.9844C0.866799 20.0469 0.632423 20.2656 4.85899 15.9844L6.1793 14.6484L6.44492 14.875C7.57383 15.8516 9.00352 16.4961 10.566 16.7422C11.1754 16.8359 12.2926 16.8359 12.9098 16.7422C14.7027 16.4648 16.2418 15.6797 17.5426 14.3711C19.3277 12.5742 20.2145 10.0703 19.9566 7.53907ZM18.648 9.41016C18.4176 10.9883 17.7301 12.375 16.6363 13.4727C15.2887 14.8164 13.6129 15.5156 11.7184 15.5156C11.0191 15.5156 10.5387 15.4531 9.9332 15.2891C6.85508 14.4609 4.72617 11.6523 4.72617 8.41797C4.72617 6.49219 5.45664 4.70313 6.79258 3.36719C7.69883 2.46094 8.74571 1.85547 9.96055 1.52734C11.0426 1.23828 12.3941 1.23828 13.4762 1.52734C15.9215 2.18359 17.8473 4.125 18.4801 6.57422C18.7105 7.46485 18.777 8.55469 18.648 9.41016Z" fill="black"/>
</svg>
