<svg width="21" height="21" viewBox="0 0 21 21" fill="none" xmlns="http://www.w3.org/2000/svg">
<path d="M15.2915 20.2806C15.1639 20.2806 15.0363 20.2756 14.9082 20.2665C12.8016 20.1112 10.7846 19.3775 9.09465 18.1519C6.51434 16.2811 4.2223 14.0652 2.28736 11.5706C1.01933 9.93694 0.260396 7.98725 0.0998545 5.9508C0.0443336 5.25934 0.144453 4.56449 0.393328 3.91401C0.642204 3.26357 1.03392 2.67294 1.54152 2.18283L2.84673 0.919614C3.3622 0.422194 4.06079 0.142822 4.78918 0.142822C5.51756 0.142822 6.21616 0.422194 6.73163 0.919614L7.91184 2.06098C8.16694 2.30756 8.36928 2.60029 8.50736 2.92247C8.64543 3.24464 8.71647 3.58997 8.71647 3.93868C8.71647 4.28738 8.64543 4.63271 8.50736 4.95489C8.36928 5.27706 8.16694 5.56983 7.91184 5.81638L7.23475 6.47089C6.95668 6.7408 6.78361 7.0953 6.7448 7.47436C6.706 7.85348 6.80381 8.23385 7.02173 8.55124C8.39215 10.542 10.1588 12.2492 12.2186 13.5734C12.547 13.7837 12.9405 13.878 13.3326 13.8405C13.7246 13.803 14.0913 13.6359 14.3707 13.3674L15.0478 12.7129C15.3028 12.4663 15.6057 12.2707 15.939 12.1373C16.2723 12.0038 16.6295 11.9351 16.9902 11.9351C17.351 11.9351 17.7082 12.0038 18.0415 12.1373C18.3748 12.2707 18.6776 12.4663 18.9327 12.7129L20.1134 13.8538C20.3685 14.1004 20.5709 14.3931 20.7089 14.7153C20.847 15.0375 20.918 15.3828 20.918 15.7315C20.918 16.0802 20.847 16.4255 20.7089 16.7477C20.5709 17.0699 20.3685 17.3627 20.1134 17.6092L18.8051 18.8709C18.344 19.3175 17.7963 19.6719 17.1935 19.9138C16.5906 20.1557 15.9443 20.2804 15.2915 20.2806ZM4.78892 1.14869C4.56501 1.14842 4.34319 1.19088 4.13631 1.27365C3.92939 1.35642 3.74142 1.47786 3.58319 1.63102L2.27642 2.89473C1.87514 3.28225 1.56545 3.74922 1.36865 4.26347C1.17183 4.77771 1.09257 5.3271 1.13631 5.87377C1.28257 7.71925 1.97083 9.48603 3.12017 10.9664C4.99605 13.3839 7.21772 15.5315 9.71861 17.3449C11.2499 18.4561 13.0777 19.1214 14.9868 19.2626C15.5523 19.3042 16.1204 19.2272 16.6523 19.037C17.1842 18.8468 17.6673 18.5478 18.0686 18.1605L19.3754 16.8973C19.6952 16.5881 19.8748 16.1688 19.8748 15.7315C19.8748 15.2943 19.6952 14.8749 19.3754 14.5657L18.1947 13.4248C17.87 13.1248 17.4381 12.9573 16.9889 12.9573C16.5398 12.9573 16.1079 13.1248 15.7832 13.4248L15.1061 14.0794C14.6563 14.5122 14.0657 14.7816 13.4342 14.842C12.8026 14.9025 12.1688 14.7503 11.64 14.4111C9.466 13.0133 7.60168 11.2111 6.15559 9.10959C5.80465 8.59836 5.64715 7.98569 5.7097 7.37518C5.77225 6.76467 6.051 6.19373 6.49882 5.75898L7.1759 5.10447C7.49569 4.79534 7.67533 4.37609 7.67533 3.93893C7.67533 3.50177 7.49569 3.08252 7.1759 2.7734L5.99517 1.63152C5.83689 1.47826 5.64881 1.35672 5.44183 1.27386C5.23486 1.19101 5.01298 1.14847 4.78892 1.14869Z" fill="#3400CA"/>
</svg>
