<svg width="46" height="46" viewBox="0 0 46 46" fill="none" xmlns="http://www.w3.org/2000/svg">
<circle cx="23" cy="23" r="23" fill="#EB358C"/>
<path fill-rule="evenodd" clip-rule="evenodd" d="M17.8378 13C15.3067 13 13 15.3694 13 17.9693V26.2515C13 28.8515 15.3067 31.2209 17.8378 31.2209H24.9353C24.6188 30.7355 24.2072 30.3154 23.72 29.9907L23.0805 29.5644H18.0274C16.1063 29.5644 14.6125 28.0299 14.6125 26.0566V18.1642C14.6125 16.1909 16.1063 14.6564 18.0274 14.6564H25.7109C27.6319 14.6564 29.1258 16.1909 29.1258 18.1642V20.7293L30.7385 20.3398V17.9693C30.7385 15.3694 28.4318 13 25.9007 13H17.8378ZM21.869 17.1411C24.271 17.1411 26.2784 18.963 26.6465 21.328L25.0713 21.7084C24.8805 20.0592 23.5295 18.7975 21.8691 18.7975C20.0763 18.7975 18.644 20.2688 18.644 22.1104C18.644 23.0048 18.9818 23.8118 19.5347 24.4053C19.3435 24.9267 19.292 25.5087 19.4163 26.0927C19.442 26.2135 19.4747 26.3319 19.5143 26.4473C18.0358 25.5945 17.0313 23.9673 17.0313 22.1104C17.0313 19.3771 19.208 17.1411 21.869 17.1411ZM25.9007 17.1411C25.9007 16.6833 26.2613 16.3128 26.707 16.3128C27.1527 16.3128 27.5133 16.6833 27.5133 17.1411C27.5133 17.5988 27.1527 17.9693 26.707 17.9693C26.2613 17.9693 25.9007 17.5988 25.9007 17.1411ZM24.19 25.6296L32.1239 23.8753L27.9903 30.8583L27.5452 27.9039C27.4775 27.4549 27.1964 27.0702 26.7956 26.8782L24.19 25.6296ZM33.8032 24.1832C34.4078 23.1618 33.5292 21.8931 32.3916 22.1447L23.0841 24.2027C21.8421 24.4774 21.6513 26.2161 22.8028 26.7679L25.9948 28.2974L26.5295 31.8457C26.7185 33.1008 28.3297 33.43 28.972 32.3448L33.8032 24.1832Z" fill="white"/>
</svg>
