<svg width="56" height="56" viewBox="0 0 56 56" fill="none" xmlns="http://www.w3.org/2000/svg">
<circle cx="28" cy="28" r="28" fill="#81759F"/>
<circle cx="28" cy="28" r="28" stroke="#F4EFFF"/>
<g clip-path="url(#clip0_151_203)">
<path fill-rule="evenodd" clip-rule="evenodd" d="M35.29 27.25V16.84C35.29 15.462 33.904 14 32.495 14H14.795C13.385 14 12 15.462 12 16.84V27.25C12 28.924 13.385 30.386 14.795 30.09H17.59V35.77H18.52C18.56 35.77 18.81 34.72 19.453 34.823L23.179 30.091H32.494C33.904 30.387 35.289 28.925 35.289 27.251L35.29 27.25ZM38.085 23.465V28.198C38.433 30.605 36.329 32.756 33.427 32.93H25.042L23.179 34.823C23.399 35.946 24.521 36.95 25.973 36.716H33.426L36.221 40.502C36.844 40.4 37.151 41.449 37.151 41.449H38.084V36.715H39.947C41.517 36.949 42.742 35.695 42.742 33.875V26.305C42.742 24.717 41.517 23.465 39.947 23.465H38.085Z" fill="white"/>
</g>
<defs>
<clipPath id="clip0_151_203">
<rect width="31" height="28" fill="white" transform="translate(12 14)"/>
</clipPath>
</defs>
</svg>
