<svg width="46" height="46" viewBox="0 0 46 46" fill="none" xmlns="http://www.w3.org/2000/svg">
<circle cx="23" cy="23" r="23" fill="#2FC6F6"/>
<path d="M27.4625 18.0359L19.6465 25.2689C19.3723 25.5226 19.1948 25.8637 19.1445 26.2339L18.8785 28.1979C18.8435 28.4609 18.4735 28.4869 18.4005 28.2329L17.3765 24.6509C17.3199 24.4517 17.33 24.2395 17.4053 24.0467C17.4806 23.8538 17.6169 23.6909 17.7935 23.5829L27.2645 17.7759C27.4345 17.6719 27.6105 17.9009 27.4645 18.0359M31.2575 14.0389L11.3665 21.6769C11.2583 21.7179 11.1653 21.791 11.0998 21.8864C11.0343 21.9818 10.9995 22.0949 11 22.2106C11.0006 22.3263 11.0364 22.4391 11.1028 22.5339C11.1692 22.6286 11.263 22.7009 11.3715 22.7409L16.2185 24.5409L18.0945 30.5459C18.2145 30.9309 18.6865 31.0729 19.0005 30.8179L21.7015 28.6259C21.8395 28.5139 22.0106 28.4504 22.1883 28.4454C22.366 28.4403 22.5404 28.4939 22.6845 28.5979L27.5565 32.1199C27.8925 32.3619 28.3675 32.1799 28.4515 31.7759L32.0215 14.6859C32.0424 14.5854 32.0357 14.4812 32.0023 14.3842C31.9688 14.2872 31.9098 14.201 31.8315 14.1348C31.7532 14.0685 31.6584 14.0246 31.5572 14.0078C31.456 13.9909 31.3531 14.0016 31.2575 14.0389Z" fill="white"/>
</svg>
