<svg width="46" height="46" viewBox="0 0 46 46" fill="none" xmlns="http://www.w3.org/2000/svg">
<circle cx="23" cy="23" r="23" fill="#995ACA"/>
<path d="M33.5081 17.5304L33.5011 17.5034C32.9711 15.3334 30.5781 13.0044 28.3811 12.5204L28.3561 12.5144C24.8184 11.8285 21.1818 11.8285 17.6441 12.5144L17.6191 12.5204C15.4221 13.0044 13.0291 15.3334 12.4981 17.5034L12.4921 17.5304C11.836 20.5401 11.836 23.6558 12.4921 26.6654L12.4981 26.6914C13.0071 28.7694 15.2211 30.9914 17.3371 31.6014V34.0244C17.3371 34.9014 18.3931 35.3324 18.9941 34.6994L21.4201 32.1474C23.7425 32.2828 26.0728 32.1259 28.3561 31.6804L28.3801 31.6754C30.5781 31.1904 32.9701 28.8614 33.5011 26.6914L33.5081 26.6654C34.1641 23.6558 34.1641 20.5401 33.5081 17.5304ZM31.4981 25.9654C31.1481 27.3394 29.3501 29.0474 27.9211 29.3634C26.0511 29.7154 24.1661 29.8664 22.2831 29.8154C22.2646 29.8148 22.2461 29.818 22.2289 29.8249C22.2117 29.8318 22.1961 29.8422 22.1831 29.8554L20.4301 31.6404L18.5651 33.5394C18.4291 33.6794 18.1891 33.5844 18.1891 33.3894V29.4944C18.1887 29.4632 18.1775 29.4332 18.1575 29.4093C18.1374 29.3854 18.1097 29.3692 18.0791 29.3634H18.0781C16.6491 29.0474 14.8521 27.3394 14.5011 25.9644C13.9167 23.3254 13.9167 20.5904 14.5011 17.9514C14.8521 16.5774 16.6491 14.8694 18.0781 14.5534C21.3302 13.9372 24.669 13.9372 27.9211 14.5534C29.3511 14.8694 31.1481 16.5774 31.4991 17.9514C32.0843 20.5907 32.0843 23.3261 31.4991 25.9654H31.4981ZM25.8221 28.0304C25.5971 27.9624 25.3821 27.9154 25.1821 27.8324C23.1141 26.9714 21.2121 25.8594 19.7041 24.1554C18.8461 23.1874 18.1751 22.0934 17.6081 20.9354C17.3391 20.3864 17.1121 19.8154 16.8811 19.2494C16.6711 18.7324 16.9811 18.1994 17.3081 17.8094C17.6196 17.4489 18.0041 17.1585 18.4361 16.9574C18.7701 16.7974 19.0991 16.8894 19.3421 17.1734C19.8691 17.7874 20.3521 18.4324 20.7441 19.1434C20.9841 19.5814 20.9191 20.1164 20.4821 20.4134C20.3761 20.4864 20.2801 20.5714 20.1811 20.6534C20.0922 20.7201 20.0151 20.8012 19.9531 20.8934C19.9021 20.9804 19.8716 21.0778 19.864 21.1783C19.8564 21.2788 19.8718 21.3798 19.9091 21.4734C20.4471 22.9594 21.3551 24.1134 22.8441 24.7364C23.0821 24.8364 23.3211 24.9514 23.5951 24.9194C24.0551 24.8654 24.2041 24.3594 24.5261 24.0944C24.8411 23.8364 25.2431 23.8324 25.5821 24.0484C25.9221 24.2634 26.2501 24.4954 26.5771 24.7284C26.8981 24.9584 27.2171 25.1834 27.5131 25.4454C27.7981 25.6964 27.8961 26.0264 27.7361 26.3684C27.4421 26.9934 27.0161 27.5144 26.4001 27.8464C26.2261 27.9394 26.0181 27.9704 25.8221 28.0304C26.0181 27.9704 25.5971 27.9614 25.8221 28.0304ZM23.4441 16.1834C25.9081 16.2584 27.9321 18.0434 28.3661 20.7004C28.4401 21.1524 28.4661 21.6154 28.4991 22.0754C28.5131 22.2684 28.4121 22.4524 28.2211 22.4554C28.0231 22.4574 27.9351 22.2774 27.9211 22.0844C27.8961 21.7014 27.8791 21.3174 27.8311 20.9384C27.5751 18.9354 26.1111 17.2784 24.2851 16.9234C24.0101 16.8694 23.7291 16.8554 23.4501 16.8234C23.2741 16.8034 23.0431 16.7924 23.0041 16.5534C22.997 16.5093 22.9993 16.4642 23.0107 16.4209C23.0222 16.3777 23.0426 16.3374 23.0705 16.3025C23.0985 16.2677 23.1335 16.2391 23.1732 16.2186C23.2129 16.198 23.2565 16.1861 23.3011 16.1834C23.3491 16.1804 23.3971 16.1834 23.4441 16.1834C25.9081 16.2584 23.3971 16.1834 23.4441 16.1834ZM26.4381 21.3594C26.4341 21.3924 26.4321 21.4694 26.4151 21.5424C26.3551 21.8074 26.0101 21.8404 25.9311 21.5724C25.91 21.4895 25.9005 21.404 25.9031 21.3184C25.9031 20.7604 25.7981 20.2034 25.5561 19.7184C25.3071 19.2184 24.9261 18.7984 24.4811 18.5454C24.2141 18.3971 23.9246 18.2938 23.6241 18.2394C23.4941 18.2144 23.3641 18.1994 23.2341 18.1794C23.0771 18.1534 22.9931 18.0364 23.0001 17.8564C23.0071 17.6874 23.1141 17.5664 23.2721 17.5764C23.7921 17.6114 24.2951 17.7414 24.7571 18.0264C25.6971 18.6054 26.2351 19.5194 26.3921 20.7394C26.3991 20.7944 26.4101 20.8494 26.4141 20.9044C26.4231 21.0414 26.4291 21.1784 26.4381 21.3594C26.4351 21.3924 26.4291 21.1794 26.4381 21.3594ZM25.4421 21.7564C25.1671 21.7614 25.0191 21.6124 24.9911 21.3654C24.9711 21.1924 24.9561 21.0174 24.9141 20.8494C24.8379 20.5133 24.6443 20.2155 24.3681 20.0094C24.2333 19.9144 24.0831 19.8434 23.9241 19.7994C23.7221 19.7424 23.5121 19.7594 23.3111 19.7094C23.0921 19.6574 22.9711 19.4834 23.0061 19.2824C23.026 19.1888 23.0792 19.1055 23.156 19.0483C23.2327 18.9911 23.3277 18.9637 23.4231 18.9714C24.6981 19.0614 25.6091 19.7084 25.7391 21.1804C25.7491 21.2844 25.7591 21.3934 25.7361 21.4934C25.7227 21.5634 25.6867 21.6271 25.6336 21.6746C25.5804 21.7221 25.5132 21.7509 25.4421 21.7564C25.5671 21.7484 25.1671 21.7614 25.4421 21.7564Z" fill="white"/>
</svg>
