<svg width="46" height="46" viewBox="0 0 46 46" fill="none" xmlns="http://www.w3.org/2000/svg">
<circle cx="23" cy="23" r="23" fill="#4AAF50"/>
<g clip-path="url(#clip0_151_370)">
<path d="M22.735 11.8204C17.574 12.4579 13.5146 16.6017 12.9803 21.7767C12.9006 22.5407 12.9475 23.9939 13.0787 24.7298C13.2803 25.8876 13.6178 26.9095 14.1428 27.9548L14.4053 28.4798L13.6225 31.3439C13.1912 32.9235 12.8443 34.2173 12.8537 34.222C12.8631 34.2314 14.1756 33.8892 15.774 33.4673C18.099 32.8532 18.7037 32.7079 18.7975 32.7454C18.8631 32.7689 19.1678 32.9048 19.4771 33.0454C20.4803 33.5001 21.535 33.8001 22.6459 33.9501C23.4193 34.0532 24.774 34.0532 25.524 33.9501C27.9896 33.6032 30.1881 32.5157 31.9225 30.7814C32.8318 29.8767 33.4365 29.047 34.0084 27.9173C34.524 26.9001 34.8896 25.7892 35.0959 24.6173C35.2131 23.9329 35.2131 21.9126 35.0959 21.1954C34.8943 19.9814 34.5803 19.011 34.0506 17.9376C32.5365 14.886 29.7428 12.711 26.4006 11.9845C25.36 11.7595 23.8084 11.6892 22.735 11.8204ZM25.6646 13.761C27.01 14.0095 28.1256 14.4595 29.2271 15.1954C31.1115 16.4564 32.4943 18.411 33.0428 20.5767C33.4459 22.1704 33.4131 23.9798 32.9584 25.5126C32.2178 27.9876 30.46 30.0735 28.1537 31.1985C26.8131 31.8548 25.5756 32.1407 24.0709 32.1407C22.3459 32.1407 20.8225 31.7235 19.2615 30.8235L18.999 30.6735L17.274 31.1282C16.3271 31.3767 15.5396 31.5735 15.535 31.5642C15.5256 31.5548 15.7178 30.8142 15.9662 29.9142C16.21 29.0142 16.4162 28.2454 16.4162 28.2079C16.4209 28.1657 16.299 27.9314 16.149 27.6876C13.9365 24.0876 14.5178 19.3439 17.5318 16.3439C19.0318 14.8532 20.935 13.9345 23.0631 13.672C23.6396 13.6017 25.074 13.6532 25.6646 13.761Z" fill="white"/>
<path d="M19.6937 17.8532C19.4265 17.9845 18.9296 18.5704 18.7234 19.0017C18.3156 19.8454 18.3249 20.9142 18.7468 21.8985C19.2624 23.1126 20.6171 24.8376 21.9531 25.9813C22.8906 26.7829 23.6734 27.2563 24.8218 27.7063C25.9984 28.1657 26.2234 28.2173 27.0015 28.2173C27.6156 28.2173 27.714 28.2079 27.9952 28.1001C28.464 27.922 28.8156 27.7017 29.1624 27.3595C29.4343 27.0923 29.4906 27.0079 29.5796 26.7267C29.6874 26.3704 29.7531 25.8032 29.7015 25.6063C29.6781 25.5032 29.5421 25.4188 28.8765 25.086C27.6577 24.4767 27.1656 24.2657 26.9593 24.2657C26.7859 24.2657 26.7577 24.2845 26.5515 24.5563C26.0781 25.1798 25.6421 25.6626 25.5296 25.6907C25.3937 25.7235 25.1265 25.6251 24.5124 25.3157C23.514 24.8188 22.7031 24.1485 22.0046 23.2532C21.6249 22.7657 21.2827 22.2126 21.2827 22.0813C21.2827 22.0298 21.4609 21.7532 21.6765 21.472C22.0984 20.9235 22.2202 20.7173 22.2202 20.5626C22.2202 20.511 22.1265 20.2532 22.0187 19.986C21.9062 19.7235 21.6812 19.1798 21.5171 18.7813C21.3109 18.2845 21.1702 18.0079 21.0671 17.9001L20.9171 17.7501H20.4109C19.9843 17.7501 19.8671 17.7688 19.6937 17.8532Z" fill="white"/>
</g>
<defs>
<clipPath id="clip0_151_370">
<rect width="24" height="24" fill="white" transform="translate(12 11)"/>
</clipPath>
</defs>
</svg>
